/* XPM */
static char * Wall_xpm[] = {
"64 64 372 2",
"  	c #639C9E",
". 	c #69A39E",
"+ 	c #6CA79E",
"@ 	c #6EA89E",
"# 	c #6EA99E",
"$ 	c #6EAAA0",
"% 	c #6EAEA4",
"& 	c #6FB4AB",
"* 	c #6FBAB2",
"= 	c #6FBEB7",
"- 	c #6FADA3",
"; 	c #6EA99F",
"> 	c #6FA89D",
", 	c #6DA89F",
"' 	c #6AA7A2",
") 	c #63A6A8",
"! 	c #5BA4AF",
"~ 	c #55A5B4",
"{ 	c #55A8B8",
"] 	c #5BB0BA",
"^ 	c #63B7BB",
"/ 	c #6ABDBA",
"( 	c #6DBDB7",
"_ 	c #6FB4AA",
": 	c #6FA99E",
"< 	c #6DA9A0",
"[ 	c #6AA8A3",
"} 	c #64A8A9",
"| 	c #5CA6B0",
"1 	c #55A5B5",
"2 	c #50A5B8",
"3 	c #4EA5B9",
"4 	c #4FA5B9",
"5 	c #4EA4B8",
"6 	c #55AAB9",
"7 	c #5DB1BA",
"8 	c #65B9BB",
"9 	c #6BBEBA",
"0 	c #6EBEB7",
"a 	c #6FB9B1",
"b 	c #6EB3AA",
"c 	c #6EAEA5",
"d 	c #568190",
"e 	c #5A8590",
"f 	c #5B8790",
"g 	c #5C8790",
"h 	c #5C8890",
"i 	c #5C8A92",
"j 	c #5C9098",
"k 	c #5D9AA2",
"l 	c #5DA3AB",
"m 	c #5EA9B1",
"n 	c #5EAAB2",
"o 	c #5DA4AC",
"p 	c #5D9BA3",
"q 	c #5D9199",
"r 	c #5C8B94",
"s 	c #5C8991",
"t 	c #5A8F99",
"u 	c #5794A2",
"v 	c #549AAB",
"w 	c #52A0B3",
"x 	c #52A5B7",
"y 	c #55A9B9",
"z 	c #58ACB9",
"A 	c #5CADB7",
"B 	c #5DAAB2",
"C 	c #5D99A1",
"D 	c #5C8891",
"E 	c #5C8992",
"F 	c #5A8D98",
"G 	c #5793A0",
"H 	c #5499AA",
"I 	c #519FB1",
"J 	c #4FA2B6",
"K 	c #4FA3B7",
"L 	c #50A4B8",
"M 	c #52A6B8",
"N 	c #59ACB9",
"O 	c #5DA2AA",
"P 	c #5D98A0",
"Q 	c #5C9199",
"R 	c #4D6C85",
"S 	c #4F6E87",
"T 	c #4F6F87",
"U 	c #506E87",
"V 	c #507189",
"W 	c #50798F",
"X 	c #50859A",
"Y 	c #5190A4",
"Z 	c #5198AB",
"` 	c #5199AC",
" .	c #5194A7",
"..	c #518B9F",
"+.	c #508297",
"@.	c #507C92",
"#.	c #507990",
"$.	c #507C93",
"%.	c #508398",
"&.	c #508CA1",
"*.	c #4F96AB",
"=.	c #4F9EB2",
"-.	c #50A3B7",
";.	c #51A2B5",
">.	c #518FA3",
",.	c #508499",
"'.	c #4F7189",
").	c #4F788F",
"!.	c #4F8399",
"~.	c #4F8DA3",
"{.	c #4F9BB0",
"].	c #4F9DB2",
"^.	c #4F9DB1",
"/.	c #4F9FB4",
"(.	c #4FA1B6",
"_.	c #50A3B6",
":.	c #518FA2",
"<.	c #507A91",
"[.	c #48607F",
"}.	c #496282",
"|.	c #4A6483",
"1.	c #4A6383",
"2.	c #4A6685",
"3.	c #4A6D8A",
"4.	c #4B7793",
"5.	c #4B829B",
"6.	c #4C89A2",
"7.	c #4C8CA4",
"8.	c #4C8BA3",
"9.	c #4C87A0",
"0.	c #4C849D",
"a.	c #4B819B",
"b.	c #4B809A",
"c.	c #4C829C",
"d.	c #4D90A7",
"e.	c #4E98AE",
"f.	c #4E9EB3",
"g.	c #4EA0B5",
"h.	c #4D99AF",
"i.	c #4D92A9",
"j.	c #4C8AA3",
"k.	c #4B7692",
"l.	c #4A6C8A",
"m.	c #4A6484",
"n.	c #4B6D8A",
"o.	c #4C7892",
"p.	c #4D829B",
"q.	c #4D8BA2",
"r.	c #4E90A6",
"s.	c #4E91A7",
"t.	c #4E92A8",
"u.	c #4E95AA",
"v.	c #4E99AE",
"w.	c #4F9EB3",
"x.	c #4FA1B5",
"y.	c #4D98AE",
"z.	c #4D91A8",
"A.	c #4B7F99",
"B.	c #4B7591",
"C.	c #4B6E8B",
"D.	c #475C7C",
"E.	c #496180",
"F.	c #4A6384",
"G.	c #4A6585",
"H.	c #4A6988",
"I.	c #4A6F8D",
"J.	c #4B7792",
"K.	c #4B7D98",
"L.	c #4B829C",
"M.	c #4C8DA5",
"N.	c #4C8FA6",
"O.	c #4C8FA7",
"P.	c #4C90A8",
"Q.	c #4D93AA",
"R.	c #4E9DB2",
"S.	c #4C869F",
"T.	c #4B7E98",
"U.	c #4A6F8C",
"V.	c #4A6584",
"W.	c #4B6988",
"X.	c #4B718D",
"Y.	c #4C7893",
"Z.	c #4D7E97",
"`.	c #4D829A",
" +	c #4D839B",
".+	c #4D849C",
"++	c #4D89A0",
"@+	c #4E9AAF",
"#+	c #4F9FB3",
"$+	c #4E9FB3",
"%+	c #4E99AF",
"&+	c #4A6E8B",
"*+	c #4A6A88",
"=+	c #475D7B",
"-+	c #4A6381",
";+	c #4B6684",
">+	c #4C6785",
",+	c #4C6885",
"'+	c #4C6986",
")+	c #4C6B88",
"!+	c #4C6F8A",
"~+	c #4C738E",
"{+	c #4C7B94",
"]+	c #4D8EA4",
"^+	c #4E95AB",
"/+	c #4E9BB0",
"(+	c #4E9CB1",
"_+	c #4D7D96",
":+	c #4C748F",
"<+	c #4C6E8A",
"[+	c #4C6C89",
"}+	c #4C708B",
"|+	c #4C728D",
"1+	c #4C748E",
"2+	c #4D7690",
"3+	c #4E94AA",
"4+	c #4D8AA1",
"5+	c #4C7690",
"6+	c #4C6C88",
"7+	c #4C6A87",
"8+	c #475E7B",
"9+	c #4A6481",
"0+	c #4C6784",
"a+	c #4C6985",
"b+	c #4D7F98",
"c+	c #4E8BA2",
"d+	c #4F9CB1",
"e+	c #4C6A86",
"f+	c #4C6D89",
"g+	c #4C758F",
"h+	c #4D8199",
"i+	c #4E8DA3",
"j+	c #4E96AB",
"k+	c #4D889F",
"l+	c #4D7E96",
"m+	c #4C718C",
"n+	c #485F7C",
"o+	c #4C6683",
"p+	c #4C6684",
"q+	c #4C6F8B",
"r+	c #4D7993",
"s+	c #4E8CA3",
"t+	c #4E93A9",
"u+	c #4FA0B5",
"v+	c #4C738D",
"w+	c #4C6583",
"x+	c #4E8EA4",
"y+	c #4E8DA4",
"z+	c #4D89A1",
"A+	c #4D859C",
"B+	c #4D7992",
"C+	c #4A6280",
"D+	c #4B6582",
"E+	c #4D7A93",
"F+	c #4D8098",
"G+	c #4D849B",
"H+	c #4D859D",
"I+	c #4E8AA1",
"J+	c #4B6784",
"K+	c #4D7B95",
"L+	c #4E8FA5",
"M+	c #4E8CA2",
"N+	c #4D8099",
"O+	c #4B6E89",
"P+	c #4D869E",
"Q+	c #4D7C95",
"R+	c #4D869D",
"S+	c #4B768F",
"T+	c #4C7D95",
"U+	c #4D738E",
"V+	c #4C6482",
"W+	c #4C6E89",
"X+	c #4D7892",
"Y+	c #497E96",
"Z+	c #4C889F",
"`+	c #4C6582",
" @	c #48859B",
".@	c #4C91A7",
"+@	c #4E94A9",
"@@	c #4D758F",
"#@	c #4C6B87",
"$@	c #4D879F",
"%@	c #4E90A7",
"&@	c #48899D",
"*@	c #4C97AB",
"=@	c #4E93A8",
"-@	c #488A9F",
";@	c #4C99AE",
">@	c #4FA0B4",
",@	c #4D7F97",
"'@	c #4C9AAE",
")@	c #4D7891",
"!@	c #4C708C",
"~@	c #48889D",
"{@	c #4C98AC",
"]@	c #4EA0B4",
"^@	c #4E9BAF",
"/@	c #49849A",
"(@	c #4C93A8",
"_@	c #4E9CB0",
":@	c #4A7E95",
"<@	c #4C8AA0",
"[@	c #4FA6BA",
"}@	c #4B758F",
"|@	c #4C7F97",
"1@	c #4F9AAF",
"2@	c #4D88A0",
"3@	c #4E97AD",
"4@	c #4D7590",
"5@	c #4FA3B8",
"6@	c #4D7691",
"7@	c #4D7791",
"8@	c #4E92A7",
"9@	c #4E97AC",
"0@	c #4FA2B7",
"a@	c #4D819A",
"b@	c #4FA5B8",
"c@	c #4FA4B8",
"d@	c #4B6683",
"e@	c #4A627F",
"f@	c #485E7C",
"g@	c #4A6582",
"h@	c #4A6884",
"i@	c #46647F",
"j@	c #4A708A",
"k@	c #4C7A94",
"l@	c #4E8EA5",
"m@	c #476F87",
"n@	c #4A7B93",
"o@	c #4E89A0",
"p@	c #477A91",
"q@	c #4B879E",
"r@	c #4D8DA3",
"s@	c #4E89A1",
"t@	c #488499",
"u@	c #4C91A6",
"v@	c #4E889F",
"w@	c #48899E",
"x@	c #488B9F",
"y@	c #4F9AB0",
"z@	c #4D879E",
"A@	c #4A7D94",
"B@	c #4C89A0",
"C@	c #4B748E",
"D@	c #4C7E96",
"E@	c #4E8FA6",
"F@	c #4B6F8A",
"G@	c #4A768F",
"H@	c #4C899F",
"I@	c #4D8DA4",
"J@	c #4C90A6",
"K@	c #4C90A5",
"L@	c #4D748F",
"M@	c #4A7F96",
"N@	c #4E8BA1",
"O@	c #4B708A",
"P@	c #4E96AC",
"Q@	c #4C7C94",
"R@	c #4D728D",
"S@	c #4C879E",
"T@	c #49859B",
"U@	c #498A9F",
"V@	c #4C97AC",
"W@	c #4A8DA3",
"X@	c #4D9BAF",
"Y@	c #4D7A94",
"Z@	c #4C8FA5",
"`@	c #4D90A6",
" #	c #4D8FA5",
".#	c #4F9CB0",
"+#	c #4D8BA3",
"@#	c #4D718C",
"  . + @ # $ % & * = = * & - ; > > , ' ) ! ~ { ] ^ / ( * _ % $ # # ; ; ; ; ; ; : : < [ } | 1 2 3 3 4 4 5 5 2 6 7 8 9 0 a b c c b ",
"d e f g h i j k l m n o p q r s s r t u v w x y z A B l C j i g g h D D D D h h h E F G H I J K K K K K K L M y N A B O P Q Q P ",
"R S T U U V W X Y Z `  ...+.@.#.#.$.%.&.*.=.J -.;.I ` >.,.W V S S T T T T T T S S '.).!.~.*.{.].].^.=./.(.K K _.;.I ` :.%.<.<.%.",
"[.}.|.1.1.2.3.4.5.6.7.8.9.0.a.b.b.c.9.d.e.f.g.f.h.i.j.a.k.l.2.1.1.m.m.m.m.m.m.1.1.2.n.o.p.q.r.s.s.t.u.v.w.(.x.f.y.z.6.A.B.C.C.k.",
"D.E.1.F.F.G.H.I.J.K.L.9.j.M.N.O.O.P.Q.y.R.g.f.v.d.S.T.k.U.H.V.1.1.m.m.m.m.m.m.1.1.V.W.X.Y.Z.`.p. +.+++s.@+#+$+%+d.S.K.B.&+*+*+U.",
"=+-+;+>+>+,+'+)+!+~+{+.+]+^+%+/+/+/+(+$+x.(.].u.++_+:+<+)+'+,+>+>+>+>+>+>+>+>+>+>+,+'+[+}+|+1+1+1+2+_+++3+/+/+u.4+Z.5+}+6+7+7+6+",
"8+9+0+,+,+,+,+,+a+6+1+b+c+3+%+/+/+/+d+/.(.x.d+t..+2+6+,+>+,+,+,+,+,+,+,+,+,+,+,+,+,+,+'+e+7+7+'+e+f+g+h+i+u.j+s.k+l+2+m+f+7+'+a+",
"n+9+o+>+,+,+,+0+p+a+q+r+.+s+s.t.t.t+^+@+#+u+d+s.`.v+,+w+w+0+,+,+,+,+,+,+,+,+,+,+,+,+,+>+0+0+0+o+o+,+!+r+ +c+x+y+z+A+b+B+|+6+,+o+",
"C+D+0+>+,+,+,+0+0+,+6+v+E+F+ +G+.+H+I+t.@+w.(+s.p.v+,+w+w+0+,+,+,+,+,+,+,+,+,+,+,+,+,+>+0+0+p+o+o+,+6+|+B+b+A+++i+x+c+ +r+!+,+o+",
"J+'+e+e+'+,+,+,+,+,+e+f+}+v+:+1+1+2+l+++3+/+@+s..+2+6+,+,+,+,+,+,+,+,+,+,+,+,+,+,+,+,+,+,+,+,+>+,+,+e+6+!+1+K+H+L+3+t+M+N+:+6+a+",
"O+m+|+}+f+7+,+,+,+,+,+'+'+7+7+'+'+6+:+h+i+3+^+r.P+Q+:+!+6+e+,+,+>+,+,+,+,+,+,+,+,+,+,+,+,+,+,+,+,+,+,+,+a+6+:+N+M+t+3+L+R+Q+:+q+",
"S+T+l+E+U+6+,+0+0+,+,+0+p+o+w+V+V+0+W+X+`.I+y+s+++.+b+B+|+6+,+o+o+p+0+0+>+,+,+,+,+,+,+,+,+,+,+,+,+,+,+0+p+a+q+E+.+M+L+x+I+R+N+E+",
"Y+Z+4+.+E+q+a+p+0+,+,+0+p+o+w+`+`+p+7+m+X+Z..+++i+x+c+ +r+!+,+o+o+0+0+0+>+,+,+,+,+,+,+,+,+,+,+,+,+,+,+0+0+,+6+|+E+N+R+I+x+L+s+.+",
" @.@+@y+`.@@6+a+,+,+,+'+'+7+7+7+7+#@6+<+m+2+_+$@%@j+u.i+h+g+f+e+'+7+7+e+'+,+,+,+,+,+,+,+,+,+,+,+,+,+,+,+,+,+e+6+q+:+Q+R+L+3+t+c+",
"&@*@@+u.I+_+:+!+)+7+7+f+}+v+:+@@@@@@@@:+@@X+b+I+u./+/+3+++_+2+1+~+1+|+}+f+e+,+,+>+,+,+,+,+,+,+,+,+,+,+,+,+,+,+,+,+6+1+N+M+t+=@c+",
"-@;@f.{.t+++F+X+m+f+f+|+r+F+ +.+.+.+G+ + +.+++t.@+>@>@@+t.++.+ +`.`.,@r+|+6+,+o+o+p+0+0+>+,+,+,+,+,+,+,+,+,+>+o+w+>+<+B+ +I+I+.+",
"-@'@g.>@{.3+s+`.)@!@m+B+ +s+s.=@=@t.t.s.s.t.u.@+#+J J #+@+u.t.s.s.r.c+ +B+!+,+o+o+0+0+0+>+,+,+,+,+,+,+,+,+,+>+p+o+0+#@|+r+Z.Z.E+",
"~@{@]@J x.d+j+c+b+2+2+,@I+3+%+/+/+/+/+^@@+/+d+=.>@x.(.u+#+].^.].]./+j+s+N+:+f+e+'+7+7+e+'+,+,+,+,+,+,+,+,+,+,+'+'+7+6+q+v+@@@@v+",
"/@(@_@u+J x.d+t+k+,@_+G+i+^+@+/+/+/+/+/+/+/+/+/+_@d+].#+u+J K K K (.d+t+k+_+2+1+1+:+v+}+f+e+,+,+>+,+,+>+,+,+e+f+}+v+g+2+2+2+2+2+",
":@<@t+{.>@J >@@+s.4+P+k+c+L+s.t.t.t.t.t.t.t.t.s.s.t.u.v.w.K 4 [@[@4 x.@+t.I+H+.+G+ +F+E+v+6+,+o+o+p+p+o+o+,+6+v+E+F+ +.+.+ + + +",
"}@|@k+t.1@>@J #+@+3+r.M+k+H+ + + +.+.+.+.+.+G+ +p..+++s.@+x.4 [@[@4 K #+@+^+t+t.t.s.s+.+r+q+,+o+o+p+p+o+o+,+q+r+.+s+s.t.t.s.s.s.",
"W+1+_+2@+@d+x.(.>@d+3@r.P+Z.X+4@@@@@@@g+g+g+:+~+~+2+_+k+t+d+(.K 5@K (.>@=.d+/+/+/+%+3+c+b+:+f+e+'+7+7+'+e+f+:+b+c+3+%+/+/+/+/+/+",
"'+6+:+N+s+j+d+>@(.u+d+3+4+,@6@m+<+6+#@7+7+7+7+'+'+f+:+N+s+j+/+].].d+d+(+/+/+/+/+/+@+^+x+.+Q+2+1+1+:+:+1+1+2+Q+A+x+^+@+/+/+/+d+=.",
"0+'+!+X+ +s++@@+#+x./.%+s.$@b+7@}+7+p+`+`+w+w+w+w+,+!+B+ +c+r.t.t.s.s.s.t.t.t.t.t.t.r.s+++H+ + + +G+.+G+G+.+P+++i+r.8@t.t.t+^+@+",
"0+,+6+m+X+F+k+t.@+/.x.#+%+t+c+`.7@f+0+V+V+w+w+w+w+>+6+|+r+,@`. + + + + + +.+.+G+.+.+P+++s+L+s.t.t.t.t.t.t.t.r.i+++P+.+ + +H+I+t.",
",+,+e+6+!+:+_+++u.].J K x.d+j+s+F+:+6+'+'+7+e+'+a+a+7+f+}+|+1+g+g+:+:+:+:+g+:+1+1+2+Q+H+L+9@/+d+d+/+/+/+/+@+^+x+A+Q+2+~+~+2+_+k+",
",+,+,+>+,+6+2+.+t.^.0@4 4 J d+t+k+_+2+1+1+1+|+}+f+7+a+a+'+e+7+7+7+7+7+7+7+7+7+'+'+f+2+ +s./+>@u+w.d+/+/+/+%+3+c+b+:+6+,+,+6+:+N+",
",+,+0+w+w+,+|+a@r.d+K [@[@b@x.@+t.I+H+ + +`.,@r+|+6+>+w+w+w+w+w+w+w+w+w+w+w+w+V+V+,+v+`.s.d+u+#+@+u.t.t.t.s.s+.+r+q+,+w+w+,+!+X+",
",+,+0+w+w+,+|+a@r.d+K [@[@4 K #+@+^+=@t.t.r.c+ +B+!+,+w+w+w+w+w+w+w+w+w+w+w+w+V+V+,+v+ +t.(+w.@+t.++.+ + + +F+E+v+6+,+w+w+>+)+|+",
",+,+,+>+,+6+2+.+t.^.0@c@c@K (.>@=.d+/+d+d+/+j+s+N+:+f+'+'+7+7+7+7+7+7+7+7+7+7+'+'+f+2+H+=@/+d+j+c+F+X+4@@@:+v+}+f+e+,+0+0+,+7+W+",
"d@0+e+6+q+@@_+++u.=.J J >@=.d+/+/+/+d+w.u+u+d++@2@_+2+1+1+:+g+:+:+:+:+:+:+:+:+~+~+2+Z.4+^+d+^.j+c+b+7@m+<+6+7+'+,+,+,+>+>+,+7+<+",
"e@d@)+|+r+h+++t.@+>@x.w.%+u.t.s.s.t.^+@+/.J u+@+t.I+H+ + +.+.+ + + + + + + + +p. +H+I+t.@+/./.@+t.2@F+X+m+7+p+w+w+p+p+o+o+,+6+|+",
"f@g@<+r+.+i+3+^@/.x./.v.s.++.+`.`.A+I+t.@+u+J /.@+^+t+t.t.t.t.t.s.s.s.s.s.s.s.s.s.=@^+@+w.(.(.#+@+t+s+`.)@W+0+w+w+p+p+o+o+,+!+r+",
"8+h@~+F+c+u./+/.x.u+d+t+k+_+2+|+|+2+_+2@+@d+u+u+w.d+/+/+/+/+/+/+(+d+d+d+d+d+d+_@/+/+d+=.>@x.x.u+w./+3+c+b+1+6+'+'+7+7+'+e+f+g+h+",
"i@j@k@H+l@^+@+d+]./+j+s+N+:+6+,+,+6+:+N+s+j+/+d+d+/+/+/+/+/+d+=.>@(.0@K K J (.>@=.d+/+/+_@d+d+d+d+@+^+x+A+Q+2+1+1+:+:+1+1+2+l+++",
"m@n@G+o@i+L+s.t.t.r.c+ +B+!+,+w+w+,+!+B+ +c+r.t.t.t.t.t.t.t+^+@+#+K 4 [@[@c@J =.v.3+t.s.s.s.s.t.t.s.r.i+++P+.+G+G+.+.+ + +H+I+t.",
"p@q@r@y+s@H+ + + +`.,@r+|+6+>+w+w+>+6+|+r+,@`.G+.+.+.+ + +H+I+t.@+x.4 [@[@c@>@v.s.++.+`.`. + + + +.+P+++i+r.t.t.t.t.t.t.t.t+^+@+",
"t@u@u.s.v@Z.X+4@@@:+v+}+f+e+,+0+0+,+e+f+}+|+:+@@@@g+:+1+1+2+_+k+t+d+J c@4 K w.^+I+b+X+@@:+g+:+1+1+2+Q+A+x+^+@+/+/+/+/+/+/+/+d+w.",
"w@*@^@^+c+b+7@m+<+6+7+'+,+,+,+,+,+,+,+'+e+7+#@#@#@#@7+'+'+6+:+F+s+j+d+x.0@J =.^+I+b+7@m+<+6+#@'+'+6+1+b+c+3+v./+/+/+/+/+/+/+/+/+",
"x@'@f.{.t.k+b+7@}+7+p+w+w+p+0+0+>+,+,+,+0+0+0+0+0+0+p+w+w+0+f+7@`.c+t+%+#+x./.@+t.2@F+X+m+7+p+V+V+0+W+X+ +c+r.t.t.t.t.t.t.t.t.t.",
"x@'@g.>@y@t+c+`.7@f+0+w+w+p+0+0+,+,+,+>+0+0+0+0+0+p+p+w+w+p+7+}+7@b+$@s.%+/.x.#+@+t+s+`.)@W+0+V+V+p+#@m+B+,@`..+.+.+.+.+.+.+.+ +",
"~@{@]@J u+d+j+s+F+:+6+'+'+7+7+e+'+,+,+,+,+,+,+,+,+,+,+,+'+7+6+<+m+7@,@4+3+d+u+x.#+/+3+c+b+1+6+'+'+#@6+q+|+@@2+2+2+@@@@g+g+g+g+:+",
"/@(@_@u+J x.d++@2@_+2+1+1+1+|+}+f+e+,+,+>+,+,+>+,+,+e+f+}+v+:+@@4@X+Z.z@r.9@/+].d+@+^+x+A+Q+2+1+1+:+@@2+2+2+@@|+q+6+#@7+7+7+7+7+",
"A@B@=@1@/.J >@@+t.I+H+ + +`.,@r+|+6+,+o+o+p+p+o+o+,+6+v+E+F+ +G+ +G+H+2@s+L+s.t.t.s.r.i+++P+.+.+G+.+G+ + +a@Z.X+m+7+p+`+`+w+w+w+",
"C@D@$@s.@+>@J /.@+^+=@t.t.r.c+ +B+!+,+o+o+p+p+o+o+,+q+r+.+s+s.t.t.s.L+s+2@H+ + + +.+P+++i+r.t.t.t.t.t.t.s.E@I+`.)@f+0+V+V+w+w+w+",
"O+g+Z.I+3+d+u+u+w.d+/+d+d+/+j+s+N+:+f+e+'+7+7+'+e+f+:+b+c+3+@+d+(+@+^+x+.+K+2+~+~+2+Q+A+x+^+@+/+/+/+/+d+d+/+j+s+F+:+6+'+'+7+7+7+",
"F@g+_+z@r.9@/+d+(+/+d+w.u+u+d++@2@_+2+1+~+:+:+1+1+2+Q+A+x+^+@+d+d+@+3+c+b+:+6+,+,+6+:+b+c+3+%+/+/+/+d+w.u+u+d++@2@_+2+~+~+:+g+:+",
"G@D@.+o@s+L+s.s.t.=@^+@+/.J u+@+t.I+H+ +`. + + + +.+P+++i+r.t.t+t+s.s+.+r+q+,+w+w+,+q+r+.+s+s.t.t.t+^+@+/.J >@@+s.++.+ + + +.+ +",
":@H@I@i+o@H+ +`. +H+I+t.@+u+J /.@+^+=@s.s.s.s.t.t.s.r.i+++P+.+.+.+ +F+E+v+6+,+w+w+,+6+v+E+F+ +G+.+H+I+t.@+u+J #+@+u.t.s.s.t.t.t.",
"/@J@t+L+R+Q+2+v+v+2+_+2@+@d+u+u+w.d+/+/+_@d+d+d+d+@+^+x+A+Q+2+:+1+:+v+}+f+e+,+0+0+,+e+f+}+v+:+1+1+2+_+2@+@d+u+x./.].d+_@/+/+/+/+",
"/@K@t.s+h+L@6+,+,+6+:+N+s+j+/+d+d+/+d+=.>@x.x.u+w./+3+c+b+1+f+e+e+7+7+e+'+,+,+,+,+,+,+'+e+7+7+'+e+f+:+F+s+j+d+>@x.J x.>@=.d+d+=.",
"M@Z+4+.+E+q+,+w+w+,+!+B+ +c+r.t.t.=@^+@+w.(.(.#+@+t+s+ +X+!+,+o+o+0+0+0+>+,+,+,+,+,+,+>+0+0+0+o+o+,+!+X+ +s++@@+/.J J w.v.^+^+v.",
"S+T+l+E+U+6+>+w+w+>+6+|+r+,@`. + +H+I+t.@+/./.@+t.2@N+X+m+6+,+o+o+p+0+0+>+,+,+,+,+,+,+>+0+0+p+o+o+,+6+m+X+N+2@t.^@>@>@@+s.N@N@s.",
"O@~+1+|+<+7+,+0+0+,+e+f+}+|+1+1+1+6@Z.4+^+d+^.P@c+b+2+!@f+7+,+>+>+,+,+,+,+,+,+,+,+,+,+,+,+,+,+>+,+,+e+6+!+:+_+++3+/+/+3+4+h+h+4+",
"O@~+1+|+<+7+,+>+>+,+,+'+'+e+7+'+'+f+2+H+=@/+d+P@c+b+2+!@f+7+,+>+>+,+,+,+,+,+,+,+,+,+,+,+,+,+,+,+,+,+,+,+a+6+:+h+i+u.^+r.z@b+b+z@",
"G@Q@_+r+R@6+,+o+o+p+p+o+o+w+w+V+V+,+v+ +t.(+w.@+t.k+b+)@m+)+,+o+o+p+0+0+0+0+0+0+0+0+0+0+>+,+,+,+,+,+,+0+p+a+!+B+ +I+i+c+k+A+A+k+",
":@S@++ +r+!+,+o+o+p+p+p+o+w+w+V+V+,+v+`.s.d+u+#+@+t+c+`.X+!+,+o+o+p+0+0+0+0+0+0+0+0+0+0+>+,+,+,+,+,+,+0+0+,+)+m+X+Z. +k+M+x+x+M+",
"T@.@+@y+a@@@f+e+'+7+#@7+7+7+7+'+'+f+2+ +s./+u+J >@d+j+s+F+:+f+e+'+7+#@#@#@#@#@#@#@#@7+e+'+,+,+,+,+,+,+,+,+,+7+f+m+2+_+$@r.j+j+r.",
"U@V@@+u.I+Z.2+1+1+:+g+g+g+g+:+1+1+2+Q+H+L+9@d+>@J x.d++@2@_+2+1+1+:+g+g+g+g+@@@@@@:+v+}+f+7+,+,+,+,+,+,+,+a+7+f+m+2+b+I+^+/+/+^+",
"W@X@$+{.t+I+H+ + +.+.+.+.+.+.+G+G+.+P+++s+r.3+@+#+J u+@+t.I+H+ + +.+.+.+.+.+.+.+.+ +F+Y@~+f+'+>+>+,+,+>+>+'+f+|+B+N+++t.^@>@>@^@",
"Z@_@x.>@{.j+t+t.t.t.t.t.t.t.t.t.t.t.r.s+k+z@4+s.@+>@J /.@+^+t+t.t.t.t.t.t.t.t.=@=@s.s+.+E+}+e+0+0+,+,+0+0+e+}+r+ +s++@@+/.J J /.",
"`@^@>@x.#+d+/+/+/+/+/+/+/+/+/+/+/+@+^+y+.+_+,@k+t+d+u+u+w.d+/+/+/+/+/+/+/+/+/+/+/+%+3+I+Z.|+7+0+0+,+,+0+0+7+|+Z.I+3+/+w.u+(.(.u+",
" #9@/+d+d+/+/+/+/+/+/+/+/+/+/+/+/+%+3+I+,@2+2+b+c+j+/+d+d+/+/+/+/+/+/+/+/+/+/+.#{.%+3+I+Z.|+7+0+0+,+,+0+0+7+|+Z.I+3+@+d+d+d+d+d+",
"+#L+s.t.t.t.t.t.t.t.t.t.t.t.t.=@=@s.s+ +B+m+!@X+`.c+r.t.t.t.t.t.t.t.t.t.t.t.t.t+t+s.i+A+Y@@#7+,+,+,+,+>+>+e+}+E+.+s+s.t.t.s.s.t."};
