/* XPM */
static char * clear_sand_xpm[] = {
"64 64 598 2",
"  	c #32221D",
". 	c #452D20",
"+ 	c #452E20",
"@ 	c #442D20",
"# 	c #452F21",
"$ 	c #452E22",
"% 	c #483224",
"& 	c #493324",
"* 	c #483324",
"= 	c #473223",
"- 	c #462F21",
"; 	c #462F22",
"> 	c #453022",
", 	c #442E21",
"' 	c #463022",
") 	c #442F22",
"! 	c #463123",
"~ 	c #473123",
"{ 	c #463021",
"] 	c #452F22",
"^ 	c #483223",
"/ 	c #473022",
"( 	c #473122",
"_ 	c #442F20",
": 	c #453023",
"< 	c #463223",
"[ 	c #463122",
"} 	c #463023",
"| 	c #432F22",
"1 	c #453122",
"2 	c #443022",
"3 	c #432E21",
"4 	c #432F21",
"5 	c #432E20",
"6 	c #432D21",
"7 	c #432D20",
"8 	c #412C20",
"9 	c #36261F",
"0 	c #412B20",
"a 	c #B78047",
"b 	c #BC854A",
"c 	c #BD864B",
"d 	c #BF894D",
"e 	c #C18B4F",
"f 	c #CE9C5E",
"g 	c #D09E60",
"h 	c #D29F61",
"i 	c #CF9D5E",
"j 	c #D19E60",
"k 	c #D09D5F",
"l 	c #C48F52",
"m 	c #C38E51",
"n 	c #C18B4E",
"o 	c #C69154",
"p 	c #C59053",
"q 	c #C79455",
"r 	c #C59153",
"s 	c #C79355",
"t 	c #C69253",
"u 	c #C89455",
"v 	c #C79354",
"w 	c #CA9657",
"x 	c #CD9A5B",
"y 	c #CE9B5C",
"z 	c #CC9859",
"A 	c #C59052",
"B 	c #C49052",
"C 	c #C48E50",
"D 	c #C48F51",
"E 	c #C59051",
"F 	c #C48E51",
"G 	c #C38F52",
"H 	c #C99556",
"I 	c #CC985A",
"J 	c #CB9859",
"K 	c #C69254",
"L 	c #C89556",
"M 	c #C38D51",
"N 	c #C38E52",
"O 	c #C18C50",
"P 	c #BC864B",
"Q 	c #B98348",
"R 	c #B67E45",
"S 	c #B27A42",
"T 	c #765231",
"U 	c #422C21",
"V 	c #B67F45",
"W 	c #BF894C",
"X 	c #CC995B",
"Y 	c #D1A063",
"Z 	c #D3A164",
"` 	c #D4A365",
" .	c #D2A163",
"..	c #C38D4F",
"+.	c #C28D50",
"@.	c #C08A4E",
"#.	c #CA975A",
"$.	c #D2A265",
"%.	c #CD9A5C",
"&.	c #D09F61",
"*.	c #D2A062",
"=.	c #D09F60",
"-.	c #CB9758",
";.	c #D19F60",
">.	c #C28E50",
",.	c #C28D4F",
"'.	c #C69153",
").	c #D19F62",
"!.	c #CD9B5D",
"~.	c #C79255",
"{.	c #CF9E5F",
"].	c #C49051",
"^.	c #C48F50",
"/.	c #CB985A",
"(.	c #D1A062",
"_.	c #D09F62",
":.	c #CE9D5F",
"<.	c #CC9A5C",
"[.	c #BC864A",
"}.	c #BA8347",
"|.	c #BB8448",
"1.	c #B98146",
"2.	c #B47D43",
"3.	c #785432",
"4.	c #B98247",
"5.	c #CA9558",
"6.	c #C79356",
"7.	c #D3A265",
"8.	c #D4A567",
"9.	c #D3A365",
"0.	c #D5A567",
"a.	c #C99558",
"b.	c #D6A769",
"c.	c #C99557",
"d.	c #D2A162",
"e.	c #CB975A",
"f.	c #D09E61",
"g.	c #D7A76A",
"h.	c #D19F61",
"i.	c #CF9C5D",
"j.	c #D2A061",
"k.	c #D7A669",
"l.	c #D5A466",
"m.	c #D09D5E",
"n.	c #D4A366",
"o.	c #D5A568",
"p.	c #D5A467",
"q.	c #C89355",
"r.	c #C99555",
"s.	c #CC995D",
"t.	c #CD9A5D",
"u.	c #CA9759",
"v.	c #D19E5F",
"w.	c #CC9A5B",
"x.	c #D6A669",
"y.	c #D4A466",
"z.	c #D6A568",
"A.	c #C18C4F",
"B.	c #C38D50",
"C.	c #BA8448",
"D.	c #B57D43",
"E.	c #785431",
"F.	c #BB8449",
"G.	c #CF9D60",
"H.	c #D4A367",
"I.	c #D4A467",
"J.	c #D5A366",
"K.	c #D4A364",
"L.	c #D6A66A",
"M.	c #D6A76B",
"N.	c #D6A668",
"O.	c #D7A86B",
"P.	c #D6A76A",
"Q.	c #D7A769",
"R.	c #CC9858",
"S.	c #D09E5F",
"T.	c #D5A669",
"U.	c #CE9C5D",
"V.	c #CF9D5F",
"W.	c #B88045",
"X.	c #B37B43",
"Y.	c #442E22",
"Z.	c #C28F51",
"`.	c #D2A164",
" +	c #C99658",
".+	c #D2A063",
"++	c #D4A264",
"@+	c #D4A265",
"#+	c #D5A668",
"$+	c #D7A76B",
"%+	c #D7A86A",
"&+	c #D3A264",
"*+	c #D3A162",
"=+	c #D4A568",
"-+	c #B88148",
";+	c #7A5532",
">+	c #CA9859",
",+	c #D2A264",
"'+	c #D3A163",
")+	c #D5A365",
"!+	c #D5A569",
"~+	c #B67F46",
"{+	c #7B5633",
"]+	c #452F23",
"^+	c #C99659",
"/+	c #D7A86C",
"(+	c #D3A263",
"_+	c #CB9759",
":+	c #C38F50",
"<+	c #B67E44",
"[+	c #BB854A",
"}+	c #CE9D61",
"|+	c #CE9A5C",
"1+	c #D6A567",
"2+	c #D7A66A",
"3+	c #CC995A",
"4+	c #C99657",
"5+	c #D6A467",
"6+	c #C0894C",
"7+	c #BB8549",
"8+	c #B67F44",
"9+	c #795432",
"0+	c #CF9B5B",
"a+	c #D4A465",
"b+	c #CE9C5C",
"c+	c #BB8348",
"d+	c #D09F5F",
"e+	c #B98248",
"f+	c #785330",
"g+	c #BC874A",
"h+	c #C59155",
"i+	c #C59156",
"j+	c #C89558",
"k+	c #D1A060",
"l+	c #74502E",
"m+	c #C18C4E",
"n+	c #CF9E61",
"o+	c #D8A96C",
"p+	c #D8A86C",
"q+	c #D8A86B",
"r+	c #CF9D5D",
"s+	c #75512F",
"t+	c #422D21",
"u+	c #CD9B5C",
"v+	c #D1A162",
"w+	c #765230",
"x+	c #D6A86B",
"y+	c #C89456",
"z+	c #795431",
"A+	c #C59253",
"B+	c #D6A86A",
"C+	c #CD9B5B",
"D+	c #D2A263",
"E+	c #D3A364",
"F+	c #D1A061",
"G+	c #BF8B4D",
"H+	c #7B5733",
"I+	c #452E21",
"J+	c #C69354",
"K+	c #D19F5F",
"L+	c #CE9C5B",
"M+	c #D09E5E",
"N+	c #BD874B",
"O+	c #7C5734",
"P+	c #432D22",
"Q+	c #D5A769",
"R+	c #D5A566",
"S+	c #C89454",
"T+	c #C18C4D",
"U+	c #7F5C37",
"V+	c #422C20",
"W+	c #C08C4E",
"X+	c #CC9959",
"Y+	c #BE884B",
"Z+	c #7C5834",
"`+	c #C39051",
" @	c #CA9757",
".@	c #C99656",
"+@	c #CA9656",
"@@	c #CD995A",
"#@	c #D7A96C",
"$@	c #D6A569",
"%@	c #C18B4D",
"&@	c #7B5935",
"*@	c #CF9F60",
"=@	c #C59152",
"-@	c #7F5D38",
";@	c #462F23",
">@	c #D2A365",
",@	c #D5A66A",
"'@	c #D7A76C",
")@	c #D7A96D",
"!@	c #CF9C5E",
"~@	c #CB9858",
"{@	c #C99554",
"]@	c #CD9959",
"^@	c #C99655",
"/@	c #86653E",
"(@	c #D8A96D",
"_@	c #D5A86B",
":@	c #D3A366",
"<@	c #C89354",
"[@	c #CD9A5A",
"}@	c #CB9857",
"|@	c #CD9B59",
"1@	c #896841",
"2@	c #D2A060",
"3@	c #CD9B5A",
"4@	c #886640",
"5@	c #442E23",
"6@	c #CE9B5D",
"7@	c #D3A466",
"8@	c #84633C",
"9@	c #442F23",
"0@	c #D8AA6D",
"a@	c #CC9958",
"b@	c #86643D",
"c@	c #C59354",
"d@	c #D2A161",
"e@	c #C99757",
"f@	c #86633C",
"g@	c #442D21",
"h@	c #C59254",
"i@	c #C59151",
"j@	c #835F39",
"k@	c #C79556",
"l@	c #CF9E60",
"m@	c #D4A468",
"n@	c #C28F4F",
"o@	c #84613B",
"p@	c #CA9658",
"q@	c #825F39",
"r@	c #473023",
"s@	c #CA9758",
"t@	c #CF9E5E",
"u@	c #C89555",
"v@	c #C49151",
"w@	c #85633C",
"x@	c #483124",
"y@	c #D1A165",
"z@	c #D5A468",
"A@	c #C69252",
"B@	c #C38E4E",
"C@	c #87653E",
"D@	c #D4A566",
"E@	c #C69152",
"F@	c #C79353",
"G@	c #C49050",
"H@	c #C38E4F",
"I@	c #87653D",
"J@	c #CD9C5F",
"K@	c #C99455",
"L@	c #C79454",
"M@	c #C38F4F",
"N@	c #86633B",
"O@	c #BE864A",
"P@	c #D3A467",
"Q@	c #83603A",
"R@	c #CE9E60",
"S@	c #CD9B5E",
"T@	c #B88046",
"U@	c #CE9D5E",
"V@	c #C28E4F",
"W@	c #815F38",
"X@	c #C69355",
"Y@	c #D1A163",
"Z@	c #CA9858",
"`@	c #C79453",
" #	c #84633B",
".#	c #C49153",
"+#	c #C08A4D",
"@#	c #CF9C5F",
"##	c #825F3A",
"$#	c #CC995C",
"%#	c #BC8549",
"&#	c #BF894B",
"*#	c #BE894B",
"=#	c #432C21",
"-#	c #BF8A4E",
";#	c #C38E50",
">#	c #AE743E",
",#	c #C79358",
"'#	c #7F5D37",
")#	c #432C20",
"!#	c #C18D4E",
"~#	c #CD995B",
"{#	c #B07740",
"]#	c #C89656",
"^#	c #C69352",
"/#	c #BF8B4C",
"(#	c #462E21",
"_#	c #B47B43",
":#	c #C08B51",
"<#	c #D3A266",
"[#	c #BF8A4C",
"}#	c #B57B43",
"|#	c #B17841",
"1#	c #BD874D",
"2#	c #805C37",
"3#	c #C28D51",
"4#	c #C08B4D",
"5#	c #7F5B37",
"6#	c #C38F53",
"7#	c #C69255",
"8#	c #C89458",
"9#	c #82613B",
"0#	c #493224",
"a#	c #D29F62",
"b#	c #B67D45",
"c#	c #D3A367",
"d#	c #D4A266",
"e#	c #483123",
"f#	c #D3A063",
"g#	c #C58F53",
"h#	c #C28D4E",
"i#	c #472E21",
"j#	c #C38F51",
"k#	c #C28C4E",
"l#	c #B27841",
"m#	c #BE884E",
"n#	c #CB995C",
"o#	c #D19E61",
"p#	c #C28E4E",
"q#	c #84623A",
"r#	c #482F22",
"s#	c #B17840",
"t#	c #C28D53",
"u#	c #BA8449",
"v#	c #D2A064",
"w#	c #BE884D",
"x#	c #C28D52",
"y#	c #D3A165",
"z#	c #BE894C",
"A#	c #7F5B36",
"B#	c #472E22",
"C#	c #C89457",
"D#	c #CD995C",
"E#	c #C18B50",
"F#	c #C08A50",
"G#	c #D09D60",
"H#	c #BD874A",
"I#	c #B47C43",
"J#	c #452D21",
"K#	c #C48F53",
"L#	c #B98148",
"M#	c #B57E44",
"N#	c #785331",
"O#	c #CB985B",
"P#	c #B27943",
"Q#	c #B98246",
"R#	c #7F5A37",
"S#	c #483023",
"T#	c #D09E62",
"U#	c #CC985B",
"V#	c #CE9A5D",
"W#	c #C18C52",
"X#	c #B17741",
"Y#	c #CF9B5E",
"Z#	c #CB995A",
"`#	c #CE9B5E",
" $	c #BD884B",
".$	c #83603B",
"+$	c #CE9C5F",
"@$	c #C79456",
"#$	c #C08B4C",
"$$	c #825D37",
"%$	c #C28C50",
"&$	c #B98147",
"*$	c #B0763E",
"=$	c #C08C4D",
"-$	c #805B37",
";$	c #B57C45",
">$	c #BF8B52",
",$	c #BB864E",
"'$	c #C28E54",
")$	c #CE9A5B",
"!$	c #C79254",
"~$	c #C48E4F",
"{$	c #C08A4C",
"]$	c #7F5A36",
"^$	c #462E22",
"/$	c #C49053",
"($	c #B57E47",
"_$	c #C08C53",
":$	c #C8955A",
"<$	c #C38F55",
"[$	c #BE884F",
"}$	c #7C5733",
"|$	c #442C21",
"1$	c #BD864A",
"2$	c #C38E54",
"3$	c #AF763F",
"4$	c #B0763F",
"5$	c #B17640",
"6$	c #CC9A5D",
"7$	c #CB9959",
"8$	c #BF8A4B",
"9$	c #BB8649",
"0$	c #7F5B35",
"a$	c #442C20",
"b$	c #B57E45",
"c$	c #AC733D",
"d$	c #C59056",
"e$	c #C99456",
"f$	c #C28C4F",
"g$	c #C58F52",
"h$	c #B67D43",
"i$	c #CA9559",
"j$	c #D19E62",
"k$	c #C28C4D",
"l$	c #BF8A4D",
"m$	c #B88048",
"n$	c #C69156",
"o$	c #CF9B5D",
"p$	c #C9965A",
"q$	c #BF894F",
"r$	c #C28C52",
"s$	c #BE884C",
"t$	c #C79253",
"u$	c #BA8247",
"v$	c #CB9659",
"w$	c #AD733D",
"x$	c #BB844A",
"y$	c #BA8349",
"z$	c #CA9659",
"A$	c #C08B4E",
"B$	c #805B36",
"C$	c #B88147",
"D$	c #BF884B",
"E$	c #BE884A",
"F$	c #BC8649",
"G$	c #A96F39",
"H$	c #AD733C",
"I$	c #77512F",
"J$	c #B78046",
"K$	c #B88146",
"L$	c #BC864C",
"M$	c #BA8348",
"N$	c #C08B4F",
"O$	c #BD874C",
"P$	c #C18D50",
"Q$	c #BE894D",
"R$	c #B98349",
"S$	c #C38E53",
"T$	c #B37C42",
"U$	c #B57E43",
"V$	c #B0773E",
"W$	c #B0773F",
"X$	c #785230",
"Y$	c #402A1F",
"Z$	c #9E6F3F",
"`$	c #A27342",
" %	c #A37442",
".%	c #A87947",
"+%	c #AA7C4A",
"@%	c #AA7D4C",
"#%	c #9A6A3C",
"$%	c #9D6D3F",
"%%	c #A37543",
"&%	c #A37443",
"*%	c #9F7040",
"=%	c #9C6D3F",
"-%	c #9C6D3E",
";%	c #9C6C3E",
">%	c #9B6B3D",
",%	c #A17240",
"'%	c #A37544",
")%	c #A57746",
"!%	c #A37644",
"~%	c #A07242",
"{%	c #A57644",
"]%	c #A97B49",
"^%	c #9E7040",
"/%	c #A07141",
"(%	c #A27443",
"_%	c #A57745",
":%	c #A77948",
"<%	c #9E6F40",
"[%	c #A97B4A",
"}%	c #A77947",
"|%	c #A17343",
"1%	c #9D6E3E",
"2%	c #A27343",
"3%	c #A47545",
"4%	c #A37444",
"5%	c #9F703F",
"6%	c #9D6E3F",
"7%	c #99683C",
"8%	c #A67847",
"9%	c #AA7B4A",
"0%	c #A47646",
"a%	c #A07241",
"b%	c #A47745",
"c%	c #996A3C",
"d%	c #9A6B3C",
"e%	c #966639",
"f%	c #97673A",
"g%	c #6A482D",
"  . + @ # $ % & * = = = - ; > , ' # ) > ! ~ ~ { - ] ^ / ^ * ^ ^ ^ ' ( > > ' # ' _ ' > : < ^ [ ! ! } ~ ! [ | 1 ] 2 3 4 5 6 7 8 9 ",
"0 a b c d e f g h i j k l m m n o d e p q r s s o t u v w x y x z w u A B C D E F D G B v H I y J K L s r B A M N O P b Q R S T ",
"U V n n W X Y Z ` g K s  ...+.@.D I G #.$.%.&.X u u w y *. .=.-.;. .=.z >.,.'.).l l !.,.A ~.{.y J ].^./.&.(._.(.:.<.[.}.|.1.2.3.",
"U 4.K 5.6.7.8.9.0.g o a.b.c.s a.%.d.e.f.g.h.0.h.X %.i.j.k.0.l.m.n.o.p.;.q.t r.p.s.t.l.u./.!.h v.k w./.h.x.b.y.z.z. .A.B.K C.D.E.",
"6 F.G.H.o.0.H.I.n.D A /.x.J.l.n.K.z.L.M.x.o.N.z.l.o.l.p.g.0.O.P.g.P.x.Q.i R.-.O.O.g.P.P.o.I.S.` g.l.o.b.T.x.U.f z.l.A.V.*.W.X.E.",
"Y.Z.`.o.x.x. +I .+g.k.0.0.++@+y.0.x.x.g.#+M.o.b.x.x.$+N.g.x.x.%+x.x.x.o.o.0.p.p.N.$+x.x.&+j *+0.g.N.L.o.l.y.z.=+x.x.o.l.` Z -+;+",
": >+,+8.p.b.i.U.'+0.o.o.J.y.)+l.o.x.x.z.o.x.!+o.M.P.O.x.x.g.x.g.g.z.z.x.x.x.N.` p.M.P.y.S.U.` #+0.0.x.p.` y.n.o.o.y.0.` K.w.~+{+",
"]+^+ .I.o.I. .'+'+7.p.g.n.` K.` p.z.o.p.p.y.P.b./+x.O.g.N.x.g.L.b.0.N.x. . .p.` y.o.o.(+_+J y.8.p.9.!+&+` p.p.l.y.i ` l.(+:+<+3.",
"6 [+}+y.y.g.z.J.;.*.p.x.l.*+` p.` l.x.p.d.|+0.o.$+z.Q.1+z.N.2+N.N.x.x.P.x x z.x.` 7.` 3+4+-.` y.n.n.n.0.L.0.o.o.5+6+m.j.j.7+8+9+",
"6 4.s f.p.0.y.'+0+'+&+0.a+l.0.x.o.0.p.p.N.o.o.o.%+b.g.N.x.N.x.x.N.z.x.x.p.Z x.x.x.y.'+U.h.&+&+U.b+` I.0.I.0.L.G.C c+c n B.d+e+f+",
"Y.g+c.).I.0.` (+;.p.y.z.n.a+l.0.z.x.y.l.g.%+0.x.k.x.x.g.N.x.k.k.x.x.x.N.x.g.P.z.x.b.0.(+n.o.y.h.S. .y.0.0.0.z.`.a.h+i+j+a.k+e+l+",
"6 m+n+#+0.y.0.0.x.b.N.N.y.m.*+x.Q.#+z.x.o+O.p.z.g.g.g.g.Q.g.p+q+O.N.b.x.x.P.g.x./+O.P.P.x.b.b.o.p.r+` l.o.T.x.g.0.p.N.y.'+y e+s+",
"t+u+ .f w P.x.o.g.` b.P.N.i.Z b.Q.o.N.g.O.O.g.g.%+O.g.q+x.b.L.x.g.o.L.g.P.P.P.P.%+o+O.x.P.L.P.x.0.x.#+0.N.x.P.T.o.y.l. .v+{.[.w+",
"Y.>+i.U.%.O.P.#+x.p.x.g.0.j.++b.b.0.T.x.P.l.x.P.$+g.g.g.g.x+g.x.O.L.x.#+%+O.p+g.&+7.x+$+9.g f.0.x.#+P.T.x.o.x.#+o.n.` (+j.y+7+z+",
"Y.A+3+=.0.B+M.x.x.N.z.x.z.T.z.p.0.&+#+o.x.x.o.O./+b.x.b.0.0.N.P.O.x+L.K.0.P.P.x.C+U.O.P.g H s `.P.b.x.T.P.x.T.y.0.D+E+` F+G+[.H+",
"I+J+&.&+0.o.P.b.x.x.P.P.O.P.o.0.x.p.x.x.L.x.P.M.%+P.x.g.g.0.0.x.b.g.P.N.0.x.N.g.%+g.O.x.&.J /+b.x.z.T.P.T.x.b.y.l.y.a+K+L+M+N+O+",
"P+>.3+d+y U.0.N.o.x.x.P.P.P.o.g.x.#+x.O.P.P.P.P.L.x.L.g.N.x.x.x.o.b.P.x.o.x.Q.g.O.N.p.y.h.3+O.N.0.x.T.Q+x.T.o.p.R+y.` u.S+A T+U+",
"V+W+J x X+w k+E+0.o.o.P.L.O.b.M.P.#+P.P.P.g.O.x+b.x.o.#+N.g.P.%+g.O.g.x.x.N.x.P.P.N.0.p.` j.O.b.P.g.o.N.Q+o.x.0.0.l.a+4+E ].Y+Z+",
"P+`+u  @.@+@@@k (+P.#@x.g.x.P.$+!+x.g.P.x.x.O.P.$+O.S.b+P.b.N.P.P.O.P.P.x.N.P.g.x.0.x.O.g.g.b.L.$@g.x.y.#+N.` (+` ` ` u ^.+@%@&@",
": *@9.U.t H ;.(+0.x.o.o.p.o.L.P.b.n.I.T.P.x.x.P.$+P.o.l.g.b.x.P.P.O.O.$+x.b.O.P.g.0.0.0.g.g.x.g.g.P.P.o.o.l.` y.y.` a+.@t b+=@-@",
";@>@x.(.i.r.&+y.x.z.o.o.,@x.#+T.T.n.d.p.x.x.P.P.'@g.P.g.$+#@)@x+O.P.P.M.P.%+O.O.#@P.p.y.$+$+b.x.x.!+g.P.x.I.0.n.` !@S.~@{@]@^@/@",
"] ,+y.0.n.z ` T.P.x.y.0.x.L.x.T.!+p.;.&+#+O.x.P.P.o.P.x+O.(@)@O.q+g.P.x+L.g.P./+p+_@x.P.x.n.P.l.T.:@x.x+#+#+0.y.7.<@+@S.[@}@|@1@",
";@V.9.p.p.N.x.T.!+o.x.#+x.,@P.T.L.T.y.p.o.P.P.P.x.x.x.o.o.x.T.b.#+P.M.P.L.M.M.#@x+P.O./+x.P.M.P.P.b.0.x.0. @(+` &+(+ @C+U.2@3@4@",
"5@r _.=.6@o.0.o.o.0.o.0.I.!+P.!+,@o.n.o.P.P.P.M.x.o.!+P.x.x.x.x.o.o.P.T.o.P.#@x+M.P.P.P.x.x+P.P.P.O.L.0.7@-.&+n.9.E+i.j.D+M+~@8@",
"9@B :.V.w 0.#+I.T.I.=+0.0.l.o.o.o.T.x.T.L.o.L.P.P.b.x.T.x.x.x.b.T.x.x.o.o.T.0@(@/+T.#+x.P.O.O.x+#+&+b.#+` 3+9.:@y.l.y.` E+a@S+b@",
"]+c@s u.9.0.I.o.#+o.T.P.o.o.T.p.o.o.o.0.x.x.8.x.o.` z.x.x.x.T.x.z.z.p.o.T.x.o.y.P.o.x.P.T.P.P./+!+m.x.0.o.P.y.y.y.p.&+d@k+K+e@f@",
"g@h@w t.7.=.n.I.N.o.T.#+8.o.0.o.o.y.8.o.o.x.x.L.P.o.x.L.o.x.P.P.g.T.x.x.T.T.x.x+x.o.P.o.#+T.x.0.z.E+o.N.o.o.n.y.9.7. .(+k+J i@j@",
"; k@J l@7.g h.`.n.o.x.N.o.T.0.o.o.m@` y.x.N.o.o.L.x.x.T.0.o.o.x.L.o.T.o.#+x.!+T.!+L.o.I.o.T.N.p.0.0.o.p.y.y.I.9.` ;.h.'+K+,.n@o@",
"] f y.p.p.I.u.p@-.y.I.8.I.o.8.o.T.0.y j.P.#+o.o.!+2+x.N.;.&+z.o.0.p.o.0.p.o.o.o.=+o.o.o.T.o.x.x.o.o.I.o.8.o.` j *+v.M+*+F+T+n@q@",
"r@n+&. . .=.*.Y g I.:@p.I.N.0.p.o.I.,+n.L.#+I.0.o.o.o.y.` ` J.o.o.o.p.o.I.o.#+o.o.p.o.o.x.p.x.T.p.y.y.0.o.#+X s@4+4+t@3+u@^.v@w@",
"x@y@ .S.u+C+9.n.7.:@).g S.0.p.p.o.o.0.p.p.=+o.x.x.0.I.n.I.I.p.0.p.#+I.o.o.o.T.o.o.p.z@8.T.#+g.=+0.p.o.=+8.0..@A@t v i .@].B@i@C@",
"r@_.=+!.t H >@I.o.&+s@].t 0.I.I.o.o.p.n.I.y.o.o.n.p.p.I.p.I.p.o.o.o.p.p.p.o.o.=+I.o.I.y.p.o.o.n.(+` =+I.D@a+r.E@F@[@2@w G@H@i@I@",
"} J@7.!@J u ).y.I.&+y K@F@n.n.I.p.I.` 8.p.H.I.=+9.` I.p.0.y.p.I.y.o.I.H.I.I.I.y.:@y.o.:@:@n.n. .h.x y.9. .C+S+c.x m.C+L@M@M@G@N@",
"} J@.+V.U.x  .&+n.9.*.x O@` n.H.I.'+9.I.o.I.m@I.n.n.y.` y.` y.I.0.n.y.o.o.I.I.I.n.I.P@I.7.o.y.;.S.f n.9.:@!@U.i F+d.~@F@G@H@G@Q@",
"r@R@*.(.(.$.9.9.y.y.` S@T@n.I.7.n. +l@n.o.I.I.y.y.7.&+n.y.n.` y.y.'+:@I.I.n.9.I.n.n.I.I.y.I.y.U@;.:@=+I.I.7@P@y.9.&+3@S+i@].V@W@",
"; X@n u.&+&+7.&+&+` 9.t.T@@+z@n. .K@).n.=+=+n.:@I.I.` 0.p.p.y.y.l.V.y :@I.8.I.n.7.n.I.I.m@o.o.I.o.o.I.y.y.8.n.9.Y@d.t@Z@i@x `@ #",
"g@.#+#a. .9.&+ .k ` 9.@#c+(.` I.&+V.7.:@9.:@7.y.I.n.I.o.o.o.y.I.I.7. .:@7.I.=+I.y.:@9.:@:@I.p.#+o.=+I.I.y.:@&+`. . .=.J E@v G@##",
"g@>.%@y+;.'+7. .@@h.h.$#%#|+*.n.n.n.,+7.n.,+`.n.Z :@z@o.m@I.I.o.m@o.o.y.n.y.` o.y.` :@y.I.y.n.I.I.8.:@:@7.9.F+d.,+&+;.Z@A@&#*#U+",
"=#-#].q  @4+ .n.&+A ;#D '.>#,#`.n.7.Z ` n.:@&+`.&+:@I.I.p.p.y.n.p.I.I.I.:@n.y.y.p.I.y.I.n.I.:@` m@9.:@`.:@9.I V. . .-.L@A@F@T+'#",
")#!#E@H 3+@#y.7.n.@#6@~#H {#i+ . .9.`.7.:@7.f 9.:@I.7.I.n.n.m@I.T.o.0.o.y.y.I.o.:@n.I.7.o.n.o.I.:@9.&+D+(.x F+ .9. .J ]#u@^#/#U+",
"(#=@<@w i.&+y.7.@+p.&+V.I _#:#S@ .*.`.<#n.n.V..+n.n.:@9.I.n.0.I.I.I.I.=+n.o.I.I.:@7.9.7.7.n.I.n.n.:@,+ .(.3+Y (.&+(.u+.@^@L@[#-@",
"/ !.j.(.`.).$.n.n.n.n. .j }#|#1#h.Y@*.`.` j f.7.p.9.n.n.` @+&+Z o.I.o.p.n.I.I.n.I.y.y.` h.@@` 7.,+*. . .7.&+&+ .&+F+U. @.@u@].2#",
"r@f (.h.g 4+(.Z Z 7.7.,+d.t.3#F.@.).(.&+n.Z 7.y.I.n.n.n.9.7.7. .7.I.o.I.n.7@I.y.I.I.I.I.` 7.E+.+`.h.(.,+9.`.&+=.F+m.u F@=@;#4#5#",
"~ u+).7.&.c.h.`.Z &+ .7.`.&+^+6#7#8#$#).9.&+7.:@:@n.I.o.@+7.<#7.7.n.:@I.I.I.I.n.I.I.H..+&+&+g g  . .h. .:@l@6@X U.S.w A@].G@4#9#",
"0#w.(.`.`.3+ .&+7.@+7.a#Z  . .7.&.b#l f y.n.:@n.9.o.x.I.7.` 9.c#c#n.n.:@&+d#n.:@I.:@$.r.U.d.4+U.h.F+ . .(.w s u -.h.C+H ^.^#A@b@",
"e#X@o %.).). .f#*.Z `.h.I g &+`..+{#g#!@n.n.<#n.:@n.n.:@<#n.7.7.9.,+7.7.Z 9.:@I.:@(.|+v q.c.J !@;.z S.u+p@v %.V.S.m.w F@A@:+h#f@",
"i#j#k#w %..+`. .(.`. ..+V.(.&+`..+l#m#n#7.7.:@n.7.7.:@y.7.$.:@7.7.7.7.7.7.7.7@:@Z h.6@v '.c.y g (.x h.3+u s@o#.+).u+w .@S+G@p#q#",
"r#A.k#^.'. . ..+.+`.7.:@I..+`.$.).b#s#t# .Z 7.I.<#7.n.:@7.`.:@n.7.Z n.&+:@n.:@7.h.g Y@4+H p@F+ .&.y ` y %.'+(.Z (.6@i i x G@!#q@",
"; u#d ;#q.*. .`.v#h.(.7.7.7.v#&+*.h.w#x#!@7.&+7.7.`.n.p.y#.+,+Z 7.:@:@` 9.9. .X s@I `.s X Y .+h.h.g 7.&+(.).h.).*.!@i 3+,.4#z#A#",
"B#F.C#%.D#_+`. .`.7.7.n.c#7.$.y#h w F E#F#7.7.<#`.7.:@n.9. .Z 7.7.:@7.`.S.h.n.g G#).*.&.g *._.f.g g '+_..+(.g (.F+h.V.4+4#H#I#9+",
"J#N+/.g g /.Y 7.`.7.7.7.:@7.$.`.h.X X K#L#.+).Y 7.7.Z 9.n.&+.+<#:@<#.+Y f !@ .,+:@7.7.`.*. . .g g k g g h.(.g (.;.w.%.t T+Y+M#N#",
"(#+#O#(.Z (. .7.Z f..+`.'+ .Z  ..+o#o#t#P#&+(..+Z `.Z Z 7.'+`.:@7.$.Z 7.o#6@I ).7.`.7. .Y  .7.Z *.l@&.).g h.&.&.u+n n h#h#Y+Q#R#",
"S#f T#Y &.Y 3+U#V#G#.+=.p@6.%.Y `.g h.W#X#h.g )..+Z  .'+Z Y#!@n.I.Y Z `.Z *.). .7.7.7.).Y .+n.`.`.g V.!@V.Z#`#S.V.n W %@!#4# $.$",
"r@(.!.+$o#F+f %._+g 6@i.6@H 6@.+.+G#g x#<+x#$#h. .h.h.g n.(.g Z 7..+(.Z 7..+.+`.`. .7.(. .{.y.=.&.J 6@6@f t J+c.@$4#%@m+#$&#z#$$",
"r@X '.e.j *. .g L g z x &+o#o#).f.V#D#%$&$*$8#.+Y k G#I `.`.`.*. ..+h.(..+.+). ..+).Y h.).!@y.{.w.=@~#V.S.u m+W m+=$..h#%@&#z#-$",
"; #.Y#h d.).d.g J y |+k .+h.k `#U._+;$>$.+Y ,$'$v#h..+j (.&+7.(.h.o#g )$k k g .+ .o#.+.+.+g h.U.x U.K _+6@i !$,.H@,.E@~${$*#H#]$",
"^$/$p 6.a.g F+g /.X %.g o#g f.f 3+p@($_$).v#:$<$:#[$[$F#f.*.f.h.&.(.g -.p@a./.).).h.Y ).f.k y+y+-.i I /.!@u+^.h#;#%@J J u {$}.}$",
"|$F.1$n ,.6@V.!@I _+|+k `#G#V.`#I y+-+<$Y ).G#2${#3$4$5$6$g ).(.'+.+h._+y+K o o#f.h.).{.6@3+,.D K t.`#6@6@J 4#,.;#m+7$y w 8$9$0$",
"a$b$1${$p '.D ~.a.+#_+_+%.%.@#`#a.c$d$f.v#).).@#U#e$f$g$h$i$G.h.G#(. .h.@#z e$G#Y j$)./$;#;#n A.A 4+`#%.|+I %.v ;#m+,.,.k${$l$5#",
"a$<+C.+#A !$l K U#A _+D#`#+$6@i$m$R n$@#.+7..+@#I o$`#@#p$q$r$/.h./._+e.!@i !@).).T#G._+6.m+s$y+p@s `#%.H '.t$F ,.W W *#H#4#m+-$",
"a$2.u$n p c.K 7#V#F c.e.@#e.v$g#w$u$~.t.G.Y g %._+(.&+h.V.x$y$s !.s '.q.6@!@6@@#f.G.t.I y++.z#z$X H `#%.e$,.%@A$m+Y+9$H#Y+%#+#B$",
"(#C$D.e y+a.'.y+6@m++#l I D$p m 3$n D c.w ).y+A p g !@'.%@E$+#m+m m D B p r y+D#6@O#;#m+k#m /$'.p _+o H c.H@m+m+m+|.Q#F$W G$H$I$",
"J#J$K$F.@.m 7#/$L$M$d N$O$J$u#C$S 7+s$-#f$p P$-#+#o h@Q$}.C.[.l$P l$,.+#R$C$@.6.S$m O$F.N+N+n N+u#a A$B l 4#F$H# $<+T$U$4.V$W$X$",
"Y$Z$Z$`$ %.%+%@%#%$%%%&%*%=%-%;%>%Z$,%'%)%!%'%~%`${%]%^%/%'%(%)%_%_%]%:%<%#% %[%)%}%|%1%2%3%4%5%6%7%&%8%9%0%a%&%b%#%c%d%*%e%f%g%"};
