/* XPM */
static char * sand_xpm[] = {
"64 64 515 2",
"  	c #36221C",
". 	c #41271C",
"+ 	c #43281D",
"@ 	c #43281C",
"# 	c #42271C",
"$ 	c #3F251B",
"% 	c #43271C",
"& 	c #45291D",
"* 	c #40251C",
"= 	c #44291D",
"- 	c #46291E",
"; 	c #46281C",
"> 	c #472A1D",
", 	c #47291C",
"' 	c #44281D",
") 	c #44271D",
"! 	c #45291E",
"~ 	c #43291E",
"{ 	c #452A1E",
"] 	c #44281C",
"^ 	c #462A1D",
"/ 	c #462A1E",
"( 	c #442A1E",
"_ 	c #44291E",
": 	c #42281D",
"< 	c #42271D",
"[ 	c #46291D",
"} 	c #45281C",
"| 	c #43291D",
"1 	c #38231B",
"2 	c #40291E",
"3 	c #A26837",
"4 	c #A06736",
"5 	c #925A2F",
"6 	c #804A26",
"7 	c #724021",
"8 	c #965E32",
"9 	c #9C6333",
"0 	c #9B6232",
"a 	c #9A6031",
"b 	c #975E30",
"c 	c #90572B",
"d 	c #885028",
"e 	c #9C6233",
"f 	c #9A6132",
"g 	c #A66D3A",
"h 	c #9D6434",
"i 	c #A36A38",
"j 	c #A9703B",
"k 	c #A06735",
"l 	c #955B2F",
"m 	c #965C30",
"n 	c #955C30",
"o 	c #854C27",
"p 	c #864D28",
"q 	c #885029",
"r 	c #A56B39",
"s 	c #A76D39",
"t 	c #A96F3B",
"u 	c #AB733D",
"v 	c #A36A37",
"w 	c #9D6333",
"x 	c #A06635",
"y 	c #A96F3A",
"z 	c #AF753F",
"A 	c #AB713D",
"B 	c #9E6433",
"C 	c #A16836",
"D 	c #A76E3A",
"E 	c #AB723D",
"F 	c #AC733E",
"G 	c #A56B38",
"H 	c #A26936",
"I 	c #9E6434",
"J 	c #935A2F",
"K 	c #A86F3C",
"L 	c #A26836",
"M 	c #A86E3A",
"N 	c #A66D39",
"O 	c #A56C39",
"P 	c #A86F3B",
"Q 	c #A46A37",
"R 	c #996131",
"S 	c #653F25",
"T 	c #432B1F",
"U 	c #A46B38",
"V 	c #A46D3B",
"W 	c #A26C3B",
"X 	c #945D31",
"Y 	c #A26937",
"Z 	c #A26736",
"` 	c #B07844",
" .	c #AF7743",
"..	c #AE7642",
"+.	c #AB7340",
"@.	c #A36937",
"#.	c #A56A37",
"$.	c #A66C39",
"%.	c #AA713C",
"&.	c #B57D46",
"*.	c #B17943",
"=.	c #B27A44",
"-.	c #AD7542",
";.	c #AE7643",
">.	c #A8713F",
",.	c #A66E3D",
"'.	c #9C6334",
").	c #B37B45",
"!.	c #B77F47",
"~.	c #B98149",
"{.	c #B88048",
"].	c #B67D46",
"^.	c #B07741",
"/.	c #B07842",
"(.	c #B67E47",
"_.	c #B47B45",
":.	c #B77F48",
"<.	c #B37B44",
"[.	c #B27943",
"}.	c #AE7743",
"|.	c #B37A44",
"1.	c #AD743F",
"2.	c #AA703C",
"3.	c #B57C45",
"4.	c #B88049",
"5.	c #B67E46",
"6.	c #A66B38",
"7.	c #674126",
"8.	c #422B20",
"9.	c #A86D39",
"0.	c #A66C38",
"a.	c #A76C38",
"b.	c #BE864D",
"c.	c #C0884F",
"d.	c #C28B51",
"e.	c #C08950",
"f.	c #B0763F",
"g.	c #AF763F",
"h.	c #B17740",
"i.	c #B57D45",
"j.	c #BD854D",
"k.	c #BD864E",
"l.	c #BE874E",
"m.	c #BC844C",
"n.	c #BC854D",
"o.	c #BE864E",
"p.	c #BD864D",
"q.	c #AB703B",
"r.	c #BF874E",
"s.	c #BF884F",
"t.	c #BE874D",
"u.	c #BD854C",
"v.	c #BB834B",
"w.	c #BC854C",
"x.	c #BF8850",
"y.	c #B98148",
"z.	c #B17841",
"A.	c #BA8249",
"B.	c #C0894F",
"C.	c #A26734",
"D.	c #9E6232",
"E.	c #6C4628",
"F.	c #AC733D",
"G.	c #B27942",
"H.	c #B07740",
"I.	c #C18A51",
"J.	c #C18B51",
"K.	c #BF874F",
"L.	c #C08A50",
"M.	c #BA8148",
"N.	c #C18A50",
"O.	c #BF884E",
"P.	c #C18950",
"Q.	c #B57E45",
"R.	c #6E4729",
"S.	c #442C20",
"T.	c #B98048",
"U.	c #BF894F",
"V.	c #BA8349",
"W.	c #A66B39",
"X.	c #C28C52",
"Y.	c #C38C52",
"Z.	c #C08850",
"`.	c #BD864C",
" +	c #B57C44",
".+	c #724B2B",
"++	c #442D20",
"@+	c #B37A43",
"#+	c #B98249",
"$+	c #B47C47",
"%+	c #9A5F32",
"&+	c #B67C45",
"*+	c #C08A51",
"=+	c #BF8950",
"-+	c #B57B44",
";+	c #AB713B",
">+	c #744E2E",
",+	c #452D21",
"'+	c #B87F47",
")+	c #BB834A",
"!+	c #AE743F",
"~+	c #B67F49",
"{+	c #9F6536",
"]+	c #C18951",
"^+	c #C18B52",
"/+	c #B37A42",
"(+	c #452D20",
"_+	c #BA824A",
":+	c #B9824A",
"<+	c #B57F49",
"[+	c #945A2E",
"}+	c #B07742",
"|+	c #BC844B",
"1+	c #C28B52",
"2+	c #BE864C",
"3+	c #BB824A",
"4+	c #B27A42",
"5+	c #754F2E",
"6+	c #B17842",
"7+	c #B9824B",
"8+	c #A8703F",
"9+	c #A36836",
"0+	c #BA814A",
"a+	c #BE874F",
"b+	c #B07841",
"c+	c #41291E",
"d+	c #9F6534",
"e+	c #A06434",
"f+	c #C68F55",
"g+	c #C48D53",
"h+	c #C08951",
"i+	c #BA8149",
"j+	c #AF7540",
"k+	c #704A2B",
"l+	c #412A1E",
"m+	c #A96E3A",
"n+	c #B77E46",
"o+	c #C38B52",
"p+	c #744D2D",
"q+	c #422A1F",
"r+	c #9B6132",
"s+	c #BC854B",
"t+	c #A86E39",
"u+	c #AD733E",
"v+	c #C48C52",
"w+	c #C58E53",
"x+	c #AF7640",
"y+	c #AC733F",
"z+	c #BE884F",
"A+	c #AE743E",
"B+	c #764F2E",
"C+	c #452C20",
"D+	c #AA703B",
"E+	c #BC834C",
"F+	c #A56B3A",
"G+	c #AF753E",
"H+	c #AD743E",
"I+	c #764F2F",
"J+	c #442B20",
"K+	c #A36A3A",
"L+	c #B47C45",
"M+	c #734C2D",
"N+	c #AC723D",
"O+	c #AB713C",
"P+	c #724B2C",
"Q+	c #BA824B",
"R+	c #B57D47",
"S+	c #9F6333",
"T+	c #C58E54",
"U+	c #BD874E",
"V+	c #452C1F",
"W+	c #B77F49",
"X+	c #BD854E",
"Y+	c #B27842",
"Z+	c #B57C47",
"`+	c #BF8750",
" @	c #B88148",
".@	c #BB844B",
"+@	c #AA723D",
"@@	c #70492A",
"#@	c #442B1F",
"$@	c #A46A38",
"%@	c #B17944",
"&@	c #BB834C",
"*@	c #BB844C",
"=@	c #AB723E",
"-@	c #B77E49",
";@	c #BD874F",
">@	c #BA834B",
",@	c #B77F46",
"'@	c #B9814A",
")@	c #995E30",
"!@	c #B17843",
"~@	c #C38D53",
"{@	c #BA834A",
"]@	c #764E2E",
"^@	c #B77E47",
"/@	c #BE884E",
"(@	c #76502F",
"_@	c #B37A45",
":@	c #BB854D",
"<@	c #AB703C",
"[@	c #A86D3A",
"}@	c #B88149",
"|@	c #AE753F",
"1@	c #765030",
"2@	c #432B20",
"3@	c #AD733F",
"4@	c #B47C46",
"5@	c #BC844D",
"6@	c #BA834C",
"7@	c #B98049",
"8@	c #B37943",
"9@	c #A76D3A",
"0@	c #AB713E",
"a@	c #744E2D",
"b@	c #442D21",
"c@	c #AC713C",
"d@	c #AF7740",
"e@	c #BE864F",
"f@	c #B17742",
"g@	c #B67F47",
"h@	c #B78048",
"i@	c #A46937",
"j@	c #BC864D",
"k@	c #B47C44",
"l@	c #B17942",
"m@	c #AE753E",
"n@	c #78502F",
"o@	c #BE854E",
"p@	c #7D5633",
"q@	c #BB824B",
"r@	c #BC854E",
"s@	c #A96F3C",
"t@	c #C08B51",
"u@	c #AB723C",
"v@	c #754E2D",
"w@	c #42291E",
"x@	c #A06534",
"y@	c #A56A38",
"z@	c #B37B46",
"A@	c #AF7641",
"B@	c #B07642",
"C@	c #BE8750",
"D@	c #795130",
"E@	c #432A1F",
"F@	c #A06634",
"G@	c #AE7541",
"H@	c #B17743",
"I@	c #7D5734",
"J@	c #9F6434",
"K@	c #B67E48",
"L@	c #A86E3B",
"M@	c #9B6031",
"N@	c #AD7440",
"O@	c #7B5433",
"P@	c #9E6334",
"Q@	c #A66C3A",
"R@	c #B07843",
"S@	c #B8804A",
"T@	c #A16735",
"U@	c #A76E3C",
"V@	c #AC7341",
"W@	c #BD874D",
"X@	c #775030",
"Y@	c #785130",
"Z@	c #B27A43",
"`@	c #A9703D",
" #	c #B87F48",
".#	c #7B5331",
"+#	c #B27941",
"@#	c #AC723C",
"##	c #AD743D",
"$#	c #7D5533",
"%#	c #AE7540",
"&#	c #B9804A",
"*#	c #B27944",
"=#	c #7A5331",
"-#	c #AA713D",
";#	c #774F2F",
">#	c #995E2F",
",#	c #A36837",
"'#	c #B47B46",
")#	c #754D2D",
"!#	c #452A1F",
"~#	c #9A5F31",
"{#	c #A26735",
"]#	c #B07640",
"^#	c #BC834B",
"/#	c #9C6132",
"(#	c #B47B43",
"_#	c #A96E39",
":#	c #9E6333",
"<#	c #AC713D",
"[#	c #9C6131",
"}#	c #AA6F3B",
"|#	c #B27843",
"1#	c #AC723E",
"2#	c #B57C46",
"3#	c #A46936",
"4#	c #AD753F",
"5#	c #B67D47",
"6#	c #432A1E",
"7#	c #B37944",
"8#	c #9B5F30",
"9#	c #AD733D",
"0#	c #77502E",
"a#	c #BB854C",
"b#	c #B37B43",
"c#	c #77502F",
"d#	c #9D6132",
"e#	c #A56937",
"f#	c #A66B37",
"g#	c #B17741",
"h#	c #442A1F",
"i#	c #9D6233",
"j#	c #BD844D",
"k#	c #452B1F",
"l#	c #A16534",
"m#	c #A36735",
"n#	c #A36938",
"o#	c #B27841",
"p#	c #AA703A",
"q#	c #744D2E",
"r#	c #A46837",
"s#	c #A76C39",
"t#	c #754D2E",
"u#	c #A16535",
"v#	c #B47B44",
"w#	c #BD844C",
"x#	c #B0753F",
"y#	c #AE743D",
"z#	c #AA6F3A",
"A#	c #A86D38",
"B#	c #B67C46",
"C#	c #A66A37",
"D#	c #AB703D",
"E#	c #AD723E",
"F#	c #A86C39",
"G#	c #A56836",
"H#	c #AD723D",
"I#	c #8F552A",
"J#	c #A96D3A",
"K#	c #744C2C",
"L#	c #93592D",
"M#	c #A46835",
"N#	c #AE733D",
"O#	c #714A2A",
"P#	c #A96D39",
"Q#	c #B77E48",
"R#	c #9D6131",
"S#	c #A76B38",
"T#	c #754E2E",
"U#	c #A16636",
"V#	c #AC713B",
"W#	c #AB6F3B",
"X#	c #AF743E",
"Y#	c #B37942",
"Z#	c #A16433",
"`#	c #A56A36",
" $	c #A16634",
".$	c #764E2F",
"+$	c #462C1F",
"@$	c #A56936",
"#$	c #AF743F",
"$$	c #A16635",
"%$	c #A06533",
"&$	c #A46A36",
"*$	c #B07641",
"=$	c #985C2D",
"-$	c #A36736",
";$	c #A66A38",
">$	c #985D2E",
",$	c #995D2F",
"'$	c #A36835",
")$	c #A36936",
"!$	c #764F30",
"~$	c #9B6032",
"{$	c #9B6030",
"]$	c #94592D",
"^$	c #A26635",
"/$	c #A06433",
"($	c #A26534",
"_$	c #9C6030",
":$	c #9A5F2F",
"<$	c #9E6231",
"[$	c #A46836",
"}$	c #975B2E",
"|$	c #A26634",
"1$	c #9F6332",
"2$	c #A76B37",
"3$	c #965B2D",
"4$	c #975B2D",
"5$	c #995D2E",
"6$	c #92572B",
"7$	c #9A5F30",
"8$	c #6C4529",
"9$	c #3A241D",
"0$	c #462B1F",
"a$	c #472C1F",
"b$	c #482E20",
"c$	c #472C1E",
"d$	c #472D1F",
"e$	c #482D20",
"f$	c #492E20",
"g$	c #482D1F",
"h$	c #472D20",
"i$	c #472C20",
"j$	c #462B1E",
"k$	c #482C1F",
"l$	c #462C1E",
"m$	c #492D1F",
"n$	c #472B1E",
"o$	c #482C1E",
"p$	c #3D271D",
"  . + @ # $ + # % & & # * & = - ; > , & & ' % % ) % # . ! = ~ { & + ] ^ & / ' ' ' ( _ : < # @ # % & + & [ } & & } ^ & + = | & 1 ",
"2 3 4 5 6 7 8 9 0 a b c d e f 0 b g h i j k l m n o p q r s t u v w x y z A B C D E F G H I i 5 J K C C L M j N O P O H Q v R S ",
"T O U V W X x Y Z `  ...+.@.#.$.%.&.*.=.&.*.-...;.>.,.'.).!.~.{.].^./.&.(._.^.^.&.:.:.<.*.F [.}.}.&.|.1.2.3.(.(.4.!.5.&.<.6.B 7.",
"8.D 9.*.{.s 0.0.a.b.c.d.e.f.g.h.i.b.j.k.l.m.n.o.c.p.b.q.p.r.r.s.t.u.v.p.m.u.w.v.l.s.s.x.l.y.w.s.s.l.l.5.z.l.j.b.s.A.B.l.p.C.D.E.",
"T F.G.A.l.p.H.y s d.e.I.J.J.e.K.K.s.s.x.L.M.s.I.N.c.r.v.O.N.c.I.c.l.l.l.u.p.l.N.B.e.P.c.s.l.B.s.B.B.s.l.w.s.p.s.K.z j.c.l.Q.#.R.",
"S.G.T.s.U.e.V.[.W.I.].~.X.Y.e.Z.N.N.U.s.I.v.e.e.e.c.r.b.B.B.c.N.`.u.r.B.!.T.l.I.l.e.e.e.P.B.B.s.e.e.B.e.c.s.s.Z.l.~.l.l.p. +s .+",
"++@+#+p.e.I.s.$+%+P.&+!.B.I.P.e.e.I.I.I.*+Y.e.e.e.P.e.B.P.s.e.e.].{.=+I.!.-+e.s.l.s.e.e.B.s.e.e.Z.s.c.N.d.s.J.L.s.l.l.l.p.F.;+>+",
",+'+)+!+A p.l.~+{+s.c.B.N.L.c.]+d.N.X.^+J.N.=+B.e.e.e.B.B.I.c.Z.s.e.J.L.s.l.P.X.c.L.L.L.e.s.e.e.I.s.s.J.e.r.I.e.s.r.B.p.w./+@+>+",
"(+!.u._+:+s.s.<+[+}+|+B.e.s.l.r.I.s.B.e.I.e.s.s.e.e.e.e.e.s.e.P.c.I.I.s.L.I.e.e.s.e.e.L.L.s.s.e.e.s.1+e.e.r.s.Z.d.r.l.t.2+3+4+5+",
"S.6+4.)+b.r.s.7+8+9+0+P.d.e.s.l.e.=+=+x.s.e.s.s.a+s.K.x.e.B.I.e.e.s.s.e.e.e.e.e.e.e.I.1+L.K.e.=+e.U.d.L.s.s.s.s.e.l.l.b.b.j.b+5+",
"c+d+<._+v.l.K.s.o.e+:.B.f+g+e.s.Z.Z.s.h+e.e.=+a+e.s.e.=+e.s.s.e.s.s.c.r.c.B.P.e.I.e.e.J.L.e.I.P.I.s.e.e.=+O.e.e.e.l.s.b.|+i+j+k+",
"l+L 6+y._+|+l.j.j.m+G.n+j.e.e.s.s.l.s.=+s.L.Z.s.h+e.o+Y.J.e.K.l.s.e.I.e.]+e.P.e.P.P.P.Y.Y.g+P.e.e.s.=+l.s.e.s.e.e.s.K.w.n+2.!+p+",
"q+r+@.1.n+s+r.b.k.3.t+u+A.s.a+s.l.r.l.e.=+s.s.e.h+s.v+X.N.s.K.K.K.K.s.Z.s.B.c.d.e.N.N.L.w+g+e.e.s.l.c.c.e.s.s.s.L.b.l.l.[.y x+5+",
"c+e Z y+{.j.l.b.b.m.6.F m.s.o.s.K.k.j.s.h+c.a+l.s.=+s.e.s.K.K.z+s.s.s.e.s.c.e.P.c.I.e.e.L.e.e.B.e.e.Z.s.s.s.s.s.s.s.s.b.5.A+z B+",
"C+D+&.E+r.w.o.K.j.l.x F+~.l.o.a+s.s.a+x.K.K.s.x.s.x.e.e.s.s.Z.z+e.e.s.e.s.I.s.K.s.e.e.B.e.s.l.e.e.e.)+w.s.s.s.s.e.z+c.t.)+G+H+I+",
"J+H+&.m.j.l.K.o.j.1.e+K+L+l.s.x.s.o.a+x.K.z+s.K.K.z+l.z+p.l.e.s.=+Z.s.x.e.r.s.K.e.I.s.s.N.e.=+l.s.e.p.m.s.s.r.s.e.a+s.t.w.4+F.M+",
"(+3.~.m.k.u.l.o.E+j+N+2.e+j.l.o.x.a+l.K.a+s.K.a+o.x.s.s.a+e.e.x.K.s.s.=+e.s.s.e.x.l.l.1+Y.d.=+P.s.z+^+I.e.N.K.l.l.s.l.l.b.!.O+P+",
"C+!+Q+k.p.p.k.Q+u+o.K.R+S+j.p.a+z+s.o.a+s.z+k.k.x.z+o.p.K.e.s.e.a+x.s.x.K.l.r.l.s.s.s.T+1+l.p.U+s.l.s.s.e.=+r.l.l.l.s.b.p.v.O+.+",
"V+2.W+n.k.k.s.X+Y+o.j.Z+9+k.j.j.k.e.e.x.a+`+a+p.s.e.x.l.K.=+s.z+l.l.l.s.s.K.p.l.a+a+l.I.e.k.U+K.a+a+l.l.e.l.j.l.U.o.o. @{..@+@@@",
"#@$@%@Q+k.a+x.k.&@v.*@R+=@-@~.n.k.a+h+s.l.;@s.o.l.n.o.e.I.x.K.a+a+l.o.k.a+z+j.v.l.k.o.s.l.s.a+k.o.l.z+s.s.l.>@a+s.s.l.!.,@y.t k+",
"S.$.D+_.k.o.o.a+m.'@v.m.&@)@!@k.k.k.o.k.a+U+a+o.p.n.K.~@T+K.p.l.a+a+z+l.x.l.l.l.o.U+k.s.s.s.x.s.a+x.a+s.I.l.&.{@e.s.l.p.v.A.%.]@",
"C+E D+).k.n.*@*@v.^@_+m.n.e+=.j.k.l.a+a+U+s.k.k.k.l.o.j.n.n.n.a+s.z+s.l./@U+a+=+z+k.z+a+s.U+l.l.k.l.a+z+N.I.s.a+s.s./@l.n.w.^.(@",
"T %.O+_@:@j.p.n.*@n.>@_+>@<@[@}+k.s.j.k.p.k.p.n.k.k.p.n.p.n.x.;@o.k.a+z+z+n.e.x.s.a+a+z+j.}@k.j.a+a+l.e.I.e.s.z+s.l.l.a+_+}@|@1@",
"2@3@x+4@k.a+o.5@6@o.m._+7@8@9@0@&@a+j.k.k.k.*@v.a+k.k.k.s.l.l.a+a+a+a+l.U+a+s.z+s.x.l.a+5@i.k.k.j.a+Z.l.=+s.K.s.e.a+a+j.{.G.x+a@",
"b@(.*@k.l.p.n.:@m.j.n.a+o.X+3.c@6.j.l.a+k.a+o.j.k.o.o.a+l.s.l.a+e.U+U+x.n.z+z+a+s.a+U+x.o.r.l.a+o.U+K.p.z+l.x.n.l.p.l.3.g.z.d@B+",
"#@&.:+e@n.'@Q+(.8@j.X+k.n.m._+<.f@|.:+k.X+k.k.k.p.U+l.a+o.k.l.s.a+a+a+l.p.a+=+s.l.k.l.z+s.x.o.x.a+l.U+z+l.l.l.k.s.z+a+g@z.H.u+B+",
",+h@v.k.n.^@(.G.6+j.k.p.n.j.j.m.0+i@4@p.j@p.j.l.a+o.k.U+l.p.n.l.a+j.k.s.e.s.s.l.=+a+z+*+l.s.x.=+s.l.z+=+z+z+z+/@/@l.a+_+k@l@m@n@",
"C+L+}@n.j.>@!+^.5@n+|+5@v.m.l.m.o@6.:.j.l.j.j.l.s.a+a+j.m.w.o.k.a+l.z+a+U+z+=+s.l.p.p.s.z+s.s.=+s.s.=+L.z+l.e.z+l.s.U+k.p. @{.p@",
"J+U =.'@&@n.!.:.q@'@m.*@0+k.r@m.'@6+s@}+n.a+p.k.p.k.p.k.p.k.l.x.l.U+a+a+U+z+o.j@a+k.k.a+a+z+s.z+a+n.a+s.s.s.t@=+s.U+l.k.w.u@N+v@",
"w@x@y@}+5@n.v.:+_+&@*@v.&@*@n.m.>@v.z@A@B@X+p.l.j@k.j.l.k.k.k.j@a+a+z+a+z+a+U+s.=+C@k.a+z+x.z+a+a+o.a+a+e.e.l.a+z+l.o.p.v.<.G.D@",
"E@I F@G@n.n.*@>@*@m.X+X+X+n.j.n.k.o.m.H@W.o.n.p.k.k.j.o.k.p.k.j.l.k.l.a+z+a+z+=+=+a+n.z+s.k.a+=+x.l.l.l.s.*+l.U+s.U+p.l.U+w.!.I@",
"w@J@2.K@5@X+*@n.0+m.k.*+k.5@j.j.p.k.n.!@L@m.*@l.k.k.u.w.U+k.k.p.l.k.k.a+k.z+a+a+n.o.l.s.a+z+o.j.*@l.a+o.s.1+k.k.l.l.j@s.p.{@ @I@",
"w@M@9+!@v.5@X+*@m.m.k.o.j.j.n.n.n.*@n.K@|.N@4@v.w.n.p.u.p.p.p.k.p.j@k.a+k.l.k.a+n.w.a+k.k.a+l.l.n.a+l.l.l.z+p.k.l.p.k.s.*@@+G.O@",
"q+P@$@).m.p.n.*@*@m.&@n.5@k.m.m.n.m.n.n._+Q@R@S@m.m.j.j.n.p.k.j.l.k.a+U+U+p.k.a+k.o.X+e@l.a+e.s.a+z+p.l.j@w.p.U+U+p.n.p..@b+|@>+",
"c+T@).>@m.n.j.*@v.&@&@j.>@k.p.5@j.k.*@5@j.m.U@V@*@n.m.n.m.p.j.o.K.k.k.k.a+l.U+k.U+k.o.k.p.l.l.k.z+a+p.n.{..@W@n.U+p.n.n.v.}@H+X@",
"c+9+).'@v.&@m.w.v.>@n.5@m.k.m.n.n.n.m.5@v.5@3@G@v.5@n.n.m.j.j.j.k.k.k.k.k.o.l.l.j.o.j.k.n.k.a+k.n.p.p.k.n.l.p.n.k.p.w.w..@6+x+Y@",
"c+s Z@(.w.w.5.'@&@m.j.m.*@n.m.m.n.n.m.m.m.j.4.!@`@ #m.n.n.w.m.p.j.k.p.k.n.p.k.z+k.b.k.k.k.k.l.w.k.>@j.j@k.p.w.n.p.n.k@Z@G.H+^..#",
"w@O 3.4.*@Q+^@0+n.v.&@*@n.m.k.&@&@5@n.5@n.k.|+%@M@(.m.v.n.p.j.k.j.n.n.n.k.k.k.k.k.n.a+U+j.a+l.k.j.p.p.n.n.j.p.j@*@w.+#O+@###^.$#",
"C+%#@+:.5@6@>@*@*@n.5@*@n.j.m.j.&@m.n.E+5@X+j.&#*#A@f@j+n.j.n.X+n.n.*@m.o.p.k.k.p.n.a+n.k.a+k.n.l.n.p.n.m.w.p.p.p.<.A+k@i.m@u@=#",
"C+-#^.5.n.Q+m.v.m.m.n.j.m.Q+&@5@m.n.n.n.o.m.j.l.k._.N+0..@w.m.m.m.k.n.n.p.n.j@k.k.k.p.n.j.l.k.n.k.w.p.w.k._+p.k.l.:.[.h@'+i.O+;#",
"( >#$.|.v.7@Q+*@5@m.*@5@*@].~.k.X+n.j.m.k.5@v.v.j.v.u+,#'#Q+q@>@&@n.n.n.n.n.n.n.m.n.j.k..@n.j.n.n.p.*@:+>@_+w.k.z+v.v.A.5.k@O+)#",
"!#~#{#j+{.]#{.q@*@m.*@*@n.>@u.j.m.5@*@&@p..@_+_+v.n.m.^#/#4@Q+v.>@m.X+n.m.v.n.n.n.k.j.p.l.|+w.k.p.n.m.5.@+v.k.p.p.u.b._+(#O+_#)#",
"!#:#6.A@'@:.:+*@v.*@5@j.*@5@j.r.j.*@n.Q+k.n.m.j.m.*@m.v./.A <#Q+>@v.*@n.n.n.m.j@r@n.5@j.7@3.n.j.j.n.!.}@w.w.p.n.p.n.m.!./+;+y p+",
"E@[#}#|# #'@_+v.E+v.m.*@Q+v.&@m.j.m.j.k.n.n.E+m.n.m.*@v.'@%#1#2#0+q@j.j.n.k.n.n.p.5@n.n.*@'@j.j.*@p.{.#+p.p.n.m..@*@u.5.g.y N p+",
"( 3#4#2#Q+'@_+&@*@*@&@m.5@>@m.m.&@w.m.m.k.w.*@m.m.v.m.m.m.v.f@D.5#m.m.*@.@w.n.n.n.j.k.p.j.w.j.o.j.m.m.*@w.p.n.Q+.@.@.@]#;+A+A+n@",
"6#i@N+7#&@0+v.&@m.5@v.&@*@v.v.v.&@*@n.5@*@*@v.m.&@E+m.m._+Q+!@8#'#_+v.m.*@m.n.j.n.n.w.j.w.m.5@*@n.m.k.m.m.n.&@{@m.{.!.9#;+|@9#0#",
"#@x@2.|.Q+:+~.v.>@n.Q+Q+>@&@Q+v.E+m.K.k.5@5@m.5@v.Q+&@_+Q+v.*#D.A@3._+m.*@*@v.5@*@*@n.5@n.n.n.m.*@n.n.p.v.a#q@v..@b#Z@|@##H.m@c#",
"6#d#A [.'@_+v.Q+v.&@7@0+q@>@.@E+X+5@s.a+p.5@&@*@m.&@&@&@v..@_@e#f#j+4.&@v.*@*@&@n.*@m.m.m.m.n.p.m.j.>@m.*@n.v.w.w.g#f#g#G.z.]#;#",
"h#i#e#j+:.Q+&@'@Q+{.m.5@*@v.Q+m.*+e.k.5@&@*@>@m.j#v.5@v.m.m.&@7@3 B@7@5@&@&@*@*@*@m..@v.j.m.m.n.w.j.*@.@j.m.v.|+v.~.N+@#u@O+9#B+",
"k#l#m#1.4.>@'@_+&@'@v.v.v.v._+m.s.j.m.m.q@Q+Q+m.m..@_+*@E+q@m.Q+n#1.7@v.n.m.*@w.*@m.j.&@v.o#w.n.k.w.&@.@.@>@Q+{.#+_+A+N+9#p#O+q#",
"k#r#s#^.:.q@'@&@v.6@>@v.v.~.0+Q+3+m.v.&@Q+_+v.v.v.*@Q+p.v.7@^@Q+*#%#|.5#*@m.v.v.5@*@j.m.4.L+*@n.5@m.*@.@}@L+ #&.~..@]#@#F.O+@#t#",
"k#u#!+v#:.4.'@Q+v.Q+0+>@0+ #:.'@'@_+&@v.v.&@&@_+v.m.m.v.m.{.3.Q+7@u+q.z v.>@v.v.*@w.v.m._+&@m.j.w.m.v.#+ #6.a.q.{.v.z.A+A+O+u+I+",
"k#$@!+5#7@;+v#(.&@'@0+~._+z ^@q@'@Q+7@Q+Q+'@_+Q+'@*@q@_+v.m.w#v.0+v.3+x#}#7#~.&@Q+Q+v.&@n.v.n.m.'@y#h.z c@}#v#{._+*@*@m.{.p#z#;#",
"#@L@A#f@ #|.(.(.v._+_+0+:+|@G.^@Q+>@Q+7+*@Q+Q+>@E+v.v.v.v.>@v.v.Q+7@~.].m+A@0+Q+Q+'@{._+.@_+m.Q+'@ #^@3.v#B#3+Q+v.Q+n.m. #O+q.c#",
"#@r C#1#|.'@4.7@'@7@'@4.i+[.@+].q@&@Q+6@0+Q+0+q@v.>@_+{.v.0+_+Q+_+_.&+0+D#E#_.:.5#v#|.3.7@_+v.v._+n.v.:+)+v.>@v.m.'@>@7@v#z F.B+",
"( J@s#F#}#'@7@Q+'@'@Q+'@0+Q+0+_+Q+&@_+q@4.Q+Q+_+_+v.v.3._+'@v._+7@_+_+0+3.u+G#H#s O+O+}#_.Q+v.~.0+_+v.Q+Q+_+~.^@7@{.~.^.O+H+@#]@",
": I#L@3. #_+0+0+'@_+'@'@ #'@q@'@n.Q+_+^@4. #_+&@_+^@7@~.~.~.0+~.4.0+7@'@v#]#C#J#'#~.{.:.~._+v.0+0+Q+i+_+5@m.5@v#f.z.g#u+@#u@O+K#",
"~ L#L@&._+'@'@_+7@[.(.q@Q+Q+Q+'@Q+_+4.3.@+v#].0+Q+].7@4._+i+q@7@:.^@7@4.0+3.E#M#=.v.~.0+7@4.4.^@[.6+j+5#_+^#4.o#N#N#A+N+F.z O+O#",
"( )@#.|.q@Q+^@!.].P#].~.0+7@{.Q#'@7@_+g#@#A+@+7@'@ #7@^@i+0+'@'@4.^@7@ #^@^@B#R#f@ #4.'@4.].].@+!+S#z#Y+{. #6+N+;+H#9#D+D+g.O+T#",
"#@U#S+1#'@4.|@V#q.z#}#O+;+{.g#D+{.{.{.j+9.#.o# #~.~.^@W#M#D+G.'@0+A+X#q.Y#^@n+Z##.c@}#].2#_.z 9.a.m+y }#O+D+D+s D+t+9.`# $t+m+.$",
"+$S+a.N+@+x+z 9#c@9.D+D+@#!+F.}#^.|@!+t $.a.O+z [.5.A+a.@$9.D+N+#$D+W#_#O+A+H.O+#.$$s#u+z c@O+9.s P#9.A#D+9.9.Z %$m#t+f#&$a.9.;#",
"k#e+6.N+^.q.u+c@M #.<@t+9.a.M m+c@y D+s#3#e##.2.1#*$m+`#6.@$`#@$m+9.S#f#6.m+q.c@m#=$-$3#9.9.a.;$6.3# $3#s#a.S#x@>$,$$$3#'$)$G !$",
"( ~${$$$6.i@6. $]$8#^${#;$s 3#e##.@$9+-$S+8#9+$$P@R#^$/$}#<@s#($m#m#_$S+:$<$[$i@x@}$|$1$s#;$2$-$S+S+3$R#Z {#,$4$5$6$7$^$S+{#D.8$",
"9$0$+$+$a$a$b$c$~ a$d$+$b$+$a$e$f$g$a$d$+$0$d$g$h$V+i$e$e$e$e$+$+$+$+$V+a$j$k$g$k$a$l$g$f$a$m$g$g$a$n$c$g$c$/ n$o$( c$g$g$m$m$p$"};
